# xmcd
#
# Track frame offsets:
#	150
#	13789
#	28815
#	42648
#	58156
#	72635
#	87535
#	102451
#	117150
#	131510
#	144970
#	158710
#	172590
#	184804
#	198494
#	211159
#	226781
#	240198
#	252388
#	264307
#	278747
#	293691
#	307966
#	320248
#
# Disc length: 4435 seconds
#
# Revision: 1
# Processed by: cddbd v1.5.1PL0 Copyright (c) Steve Scherf et al.
# Submitted via: audiograbber 1.83.01
#
DISCID=5a115118
DTITLE=Female Blues Singers - Complete Recorded Works - 1996 - Vol 5: C-D-E (19
DTITLE=21-1928) DOCD-5509
DYEAR=1996
DGENRE=Blues
TTITLE0="Original Charleston Strut"
TTITLE1=She Walked Right Up And Took My Man Away
TTITLE2=Another Sweet Daddy
TTITLE3=My Man Jean
TTITLE4=Jazzaphobia Blues
TTITLE5=Mail Box Blues
TTITLE6=Worried Down With The Blues (Take 3)
TTITLE7=Worried Down With The Blues (Take 4)
TTITLE8=Climbing Mountain Blues
TTITLE9=Hurry Sundown Blues
TTITLE10=Landlady's Footsteps
TTITLE11=Winter Blues
TTITLE12=Kokola Blues
TTITLE13=It's All Coming Home To You
TTITLE14=Hit Me In The Nose Blues
TTITLE15=Mistreatin' Daddy
TTITLE16=If You'll Come Back To Hollywood
TTITLE17=Who Will Get It
TTITLE18=I Want Some Loving Blues
TTITLE19=Dangerous Blues
TTITLE20=I Ain't Gonna Be Nobody's Fool
TTITLE21=I've Got The Blues But I'm Just Too Mean To Cry
TTITLE22=All By Myself
TTITLE23=Foolin' Me
EXTD=Document Records, Austria - DOCD-5509
EXTT0=
EXTT1=
EXTT2=
EXTT3=
EXTT4=
EXTT5=
EXTT6=
EXTT7=
EXTT8=
EXTT9=
EXTT10=
EXTT11=
EXTT12=
EXTT13=
EXTT14=
EXTT15=
EXTT16=
EXTT17=
EXTT18=
EXTT19=
EXTT20=
EXTT21=
EXTT22=
EXTT23=
PLAYORDER=
